# xmcd CD database file
#
# Track frame offsets:
#	150
#	11562
#	22117
#	32615
#	45255
#	54450
#	65997
#	77320
#	89347
#	100375
#	113915
#	125032
#	140065
#	152062
#	171665
#	187300
#	198727
#	228645
#
# Disc length: 3213 seconds
#
# Revision: 1
# Processed by: cddbd v1.5.1PL0 Copyright (c) Steve Scherf et al.
# Submitted via: CDex 1.51
#
DISCID=080c8b12
DTITLE=Yardbirds - The Ultimate Collection [CD 1)
DYEAR=2000
DGENRE=Rock
TTITLE0=For Your Love
TTITLE1=I Wish You Would
TTITLE2=A Certain Girl
TTITLE3=Good Morning Little School Girl
TTITLE4=I Ain't Got You
TTITLE5=Got To Hurry
TTITLE6=Heart Full Of Soul
TTITLE7=Steeled Blues
TTITLE8=Evil Hearted You
TTITLE9=Still I'm Sad
TTITLE10=Shapes Of Thing
TTITLE11=Mister You're Better Man Than
TTITLE12=I'm A Man
TTITLE13=New York City Blues
TTITLE14=Train Kept A Rollin'
TTITLE15=Sweet Music
TTITLE16=Someone To Love (Parts 1 and 2)
TTITLE17=Stroll On
EXTD=YEAR: 2000
EXTT0=
EXTT1=
EXTT2=
EXTT3=
EXTT4=
EXTT5=
EXTT6=
EXTT7=
EXTT8=
EXTT9=
EXTT10=
EXTT11=
EXTT12=
EXTT13=
EXTT14=
EXTT15=
EXTT16=
EXTT17=
PLAYORDER=
